<?xml version="1.0" encoding="UTF-8" standalone="no" ?>
<!DOCTYPE svg PUBLIC "-//W3C//DTD SVG 1.1//EN" "http://www.w3.org/Graphics/SVG/1.1/DTD/svg11.dtd">
<svg xmlns="http://www.w3.org/2000/svg" xmlns:xlink="http://www.w3.org/1999/xlink" version="1.1" width="500" height="500" viewBox="0 0 500 500" xml:space="preserve">
<desc>Created with Fabric.js 4.6.0</desc>
<defs>
</defs>
<g transform="matrix(2.77 0 0 2.77 420.79 422.07)" id="QtwxlsEFU0wi-18URq0j7"  >
<path style="stroke: rgb(129,117,74); stroke-width: 0; stroke-dasharray: none; stroke-linecap: butt; stroke-dashoffset: 0; stroke-linejoin: miter; stroke-miterlimit: 4; fill: rgb(55,205,190); fill-rule: nonzero; opacity: 1;" vector-effect="non-scaling-stroke"  transform=" translate(0, 0)" d="M -50 -28.7868 C -50 -40.50253 -40.50253 -50 -28.7868 -50 L 28.786790000000003 -50 L 28.786790000000003 -50 C 40.502520000000004 -50 49.999990000000004 -40.50253 49.999990000000004 -28.7868 L 49.999990000000004 28.786790000000003 L 49.999990000000004 28.786790000000003 C 49.999990000000004 40.502520000000004 40.502520000000004 49.999990000000004 28.786790000000003 49.999990000000004 L -28.7868 49.999990000000004 L -28.7868 49.999990000000004 C -40.50253 49.999990000000004 -50 40.502520000000004 -50 28.786790000000003 z" stroke-linecap="round" />
</g>
<g transform="matrix(3.53 0 0 3.53 100.13 69.73)" id="5YZCcRN-5urkIT1qKeFXB"  >
<path style="stroke: rgb(19,206,46); stroke-width: 0; stroke-dasharray: none; stroke-linecap: butt; stroke-dashoffset: 0; stroke-linejoin: miter; stroke-miterlimit: 4; fill: rgb(55,205,190); fill-rule: nonzero; opacity: 1;" vector-effect="non-scaling-stroke"  transform=" translate(0, 0)" d="M -50 -28.7868 C -50 -40.50253 -40.50253 -50 -28.7868 -50 L 28.786790000000003 -50 L 28.786790000000003 -50 C 40.502520000000004 -50 49.999990000000004 -40.50253 49.999990000000004 -28.7868 L 49.999990000000004 28.786790000000003 L 49.999990000000004 28.786790000000003 C 49.999990000000004 40.502520000000004 40.502520000000004 49.999990000000004 28.786790000000003 49.999990000000004 L -28.7868 49.999990000000004 L -28.7868 49.999990000000004 C -40.50253 49.999990000000004 -50 40.502520000000004 -50 28.786790000000003 z" stroke-linecap="round" />
</g>
<g transform="matrix(1.52 0 0 1.52 131.72 393.5)" id="K7y3c4wxIVvr0ZUR9tumD"  >
<path style="stroke: rgb(64,214,25); stroke-width: 0; stroke-dasharray: none; stroke-linecap: butt; stroke-dashoffset: 0; stroke-linejoin: miter; stroke-miterlimit: 4; fill: rgb(55,205,190); fill-rule: nonzero; opacity: 1;" vector-effect="non-scaling-stroke"  transform=" translate(0, 0)" d="M -50 -28.7868 C -50 -40.50253 -40.50253 -50 -28.7868 -50 L 28.786790000000003 -50 L 28.786790000000003 -50 C 40.502520000000004 -50 49.999990000000004 -40.50253 49.999990000000004 -28.7868 L 49.999990000000004 28.786790000000003 L 49.999990000000004 28.786790000000003 C 49.999990000000004 40.502520000000004 40.502520000000004 49.999990000000004 28.786790000000003 49.999990000000004 L -28.7868 49.999990000000004 L -28.7868 49.999990000000004 C -40.50253 49.999990000000004 -50 40.502520000000004 -50 28.786790000000003 z" stroke-linecap="round" />
</g>
</svg>